# Blender v2.79 (sub 0) OBJ File: 'SillyManModel.blend'
# www.blender.org
o SillyManModel_Cylinder.001
v 0.125269 0.482086 0.000688
v 0.125269 1.033081 0.046347
v 0.125269 0.482086 -0.249849
v 0.125269 1.033081 -0.327442
v 0.125269 0.657962 -0.249849
v 0.125269 0.657962 0.000688
v 0.218923 0.657962 -0.249849
v 0.218923 0.482086 -0.249849
v 0.218923 0.482086 0.000688
v 0.218923 0.657962 0.000688
v 0.125269 0.182796 0.000688
v 0.125269 0.182796 -0.249849
v 0.218923 0.182796 0.000688
v 0.218923 0.182796 -0.249849
v 0.125269 0.078421 0.000688
v 0.125269 0.078421 -0.249849
v 0.218923 0.078421 0.000688
v 0.218923 0.078421 -0.249849
v 0.125269 0.182796 0.189133
v 0.218923 0.182796 0.189133
v 0.125269 0.078421 0.189133
v 0.218923 0.078421 0.189133
v 0.125269 0.864924 -0.327442
v 0.125269 0.864924 0.046347
v 0.284790 1.033081 -0.249849
v 0.284790 1.033081 0.000688
v 0.284790 0.864924 -0.249849
v 0.284790 0.864924 0.000688
v 0.409403 1.033081 -0.249849
v 0.409403 1.033081 0.000688
v 0.409403 0.864924 -0.249849
v 0.409403 0.864924 0.000688
v 0.284790 0.657992 -0.249849
v 0.284790 0.657992 0.000688
v 0.409403 0.657992 -0.249849
v 0.409403 0.657992 0.000688
v 0.284790 0.536842 -0.249849
v 0.284790 0.536842 0.000688
v 0.409403 0.536842 -0.249849
v 0.409403 0.536842 0.000688
v 0.409403 0.657992 0.295804
v 0.284790 0.657992 0.295804
v 0.409403 0.536842 0.295804
v 0.284790 0.536842 0.295804
v 0.125269 1.087326 -0.249849
v 0.125269 1.087326 0.000688
v 0.092282 1.311702 -0.215114
v 0.125269 1.311702 0.000688
v 0.125269 1.172564 0.073240
v 0.125269 1.255261 0.073240
v 0.125269 0.332441 0.049860
v 0.218923 0.332441 0.049860
v 0.125269 0.332441 -0.200677
v 0.218923 0.332441 -0.200677
v 0.125269 0.482086 -0.124580
v 0.154421 1.033081 -0.140547
v 0.154421 0.657962 -0.124580
v 0.248075 0.482086 -0.124580
v 0.248075 0.657962 -0.124580
v 0.125269 0.182796 -0.124580
v 0.248075 0.182796 -0.124580
v 0.125269 0.078421 -0.124580
v 0.248075 0.078421 -0.124580
v 0.154421 0.864924 -0.140547
v 0.284790 1.033081 -0.124580
v 0.284790 0.864924 -0.124580
v 0.438555 1.033081 -0.124580
v 0.438555 0.864924 -0.124580
v 0.284790 0.657992 -0.124580
v 0.438555 0.657992 -0.124580
v 0.284790 0.536842 -0.124580
v 0.438555 0.536842 -0.124580
v 0.154421 1.087326 -0.124580
v 0.154421 1.311702 -0.124580
v 0.248075 0.332441 -0.075409
v 0.125269 0.332441 -0.075409
v 0.107534 0.078500 -0.540609
v 0.210935 -0.078500 -0.509242
v 0.210935 0.078500 -0.509242
v 0.306230 -0.078500 -0.458306
v 0.458306 -0.078500 -0.306230
v 0.458306 0.078500 -0.306230
v 0.540609 -0.078500 -0.107534
v 0.540609 0.078500 -0.107534
v 0.551200 -0.078500 -0.000000
v 0.551200 0.078500 -0.000000
v 0.540609 -0.078500 0.107534
v 0.509242 -0.078500 0.210935
v 0.458306 -0.078500 0.306230
v 0.458306 0.078500 0.306230
v 0.389757 -0.078500 0.389757
v 0.389757 0.078500 0.389757
v 0.306230 -0.078500 0.458306
v 0.210935 -0.078500 0.509242
v 0.210935 0.078500 0.509242
v 0.107534 0.078500 0.540609
v -0.107534 -0.078500 0.540609
v -0.107534 0.078500 0.540609
v -0.306231 0.078500 0.458306
v -0.389757 -0.078500 0.389757
v -0.389757 0.078500 0.389757
v -0.458306 -0.078500 0.306230
v -0.540609 -0.078500 0.107533
v -0.540609 0.078500 0.107533
v -0.551200 0.078500 -0.000001
v -0.540609 -0.078500 -0.107534
v -0.107533 0.078500 -0.540609
v -0.125269 0.482086 0.000688
v -0.125269 1.033081 0.046347
v -0.125269 0.482086 -0.249849
v -0.125269 1.033081 -0.327442
v 0.000000 0.482086 -0.249849
v 0.000000 1.033081 -0.327442
v 0.000000 0.482086 0.000688
v 0.000000 1.033081 0.046347
v -0.125269 0.657962 -0.249849
v -0.125269 0.657962 0.000688
v 0.000000 0.657962 0.000688
v 0.000000 0.657962 -0.249849
v -0.218923 0.657962 -0.249849
v -0.218923 0.482086 -0.249849
v -0.218923 0.482086 0.000688
v -0.218923 0.657962 0.000688
v -0.125269 0.182796 0.000688
v -0.125269 0.182796 -0.249849
v -0.218923 0.182796 0.000688
v -0.218923 0.182796 -0.249849
v -0.125269 0.078421 0.000688
v -0.125269 0.078421 -0.249849
v -0.218923 0.078421 0.000688
v -0.218923 0.078421 -0.249849
v -0.125269 0.182796 0.189133
v -0.218923 0.182796 0.189133
v -0.125269 0.078421 0.189133
v -0.218923 0.078421 0.189133
v -0.125269 0.864924 -0.327442
v -0.125269 0.864924 0.046347
v 0.000000 0.864924 0.046347
v 0.000000 0.864924 -0.327442
v -0.284790 1.033081 -0.249849
v -0.284790 1.033081 0.000688
v -0.284790 0.864924 -0.249849
v -0.284790 0.864924 0.000688
v -0.409403 1.033081 -0.249849
v -0.409403 1.033081 0.000688
v -0.409403 0.864924 -0.249849
v -0.409403 0.864924 0.000688
v -0.284790 0.657992 -0.249849
v -0.284790 0.657992 0.000688
v -0.409403 0.657992 -0.249849
v -0.409403 0.657992 0.000688
v -0.284790 0.536842 -0.249849
v -0.284790 0.536842 0.000688
v -0.409403 0.536842 -0.249849
v -0.409403 0.536842 0.000688
v -0.409403 0.657992 0.295804
v -0.284790 0.657992 0.295804
v -0.409403 0.536842 0.295804
v -0.284790 0.536842 0.295804
v 0.000000 1.087326 -0.249849
v -0.125269 1.087326 -0.249849
v -0.125269 1.087326 0.000688
v 0.000000 1.087326 0.000688
v 0.000000 1.311702 -0.249849
v -0.092282 1.311702 -0.215114
v -0.125269 1.311702 0.000688
v 0.000000 1.338905 0.000688
v -0.125269 1.172564 0.073240
v 0.000000 1.087326 0.073240
v -0.125269 1.255261 0.073240
v 0.000000 1.311702 0.073240
v -0.125269 0.332441 0.049860
v -0.218923 0.332441 0.049860
v -0.125269 0.332441 -0.200677
v -0.218923 0.332441 -0.200677
v -0.125269 0.482086 -0.124580
v -0.154421 1.033081 -0.140547
v 0.000000 0.482086 -0.124580
v -0.154421 0.657962 -0.124580
v -0.248075 0.482086 -0.124580
v -0.248075 0.657962 -0.124580
v -0.125269 0.182796 -0.124580
v -0.248075 0.182796 -0.124580
v -0.125269 0.078421 -0.124580
v -0.248075 0.078421 -0.124580
v -0.154421 0.864924 -0.140547
v -0.284790 1.033081 -0.124580
v -0.284790 0.864924 -0.124580
v -0.438555 1.033081 -0.124580
v -0.438555 0.864924 -0.124580
v -0.284790 0.657992 -0.124580
v -0.438555 0.657992 -0.124580
v -0.284790 0.536842 -0.124580
v -0.438555 0.536842 -0.124580
v -0.154421 1.087326 -0.124580
v -0.154421 1.311702 -0.124580
v 0.000000 1.375644 -0.124580
v -0.248075 0.332441 -0.075409
v -0.125269 0.332441 -0.075409
v 0.000000 -0.078500 -0.551200
v 0.000000 0.078500 -0.551200
v -0.107534 -0.078500 -0.540609
v -0.210935 -0.078500 -0.509242
v -0.210935 0.078500 -0.509242
v -0.306230 -0.078500 -0.458306
v -0.306230 0.078500 -0.458306
v -0.389757 -0.078500 -0.389757
v -0.389757 0.078500 -0.389757
v -0.458306 -0.078500 -0.306230
v -0.458306 0.078500 -0.306230
v -0.509242 -0.078500 -0.210935
v -0.509242 0.078500 -0.210935
v -0.540609 0.078500 -0.107534
v -0.551200 -0.078500 -0.000000
v -0.509242 -0.078500 0.210935
v -0.509242 0.078500 0.210935
v -0.458306 0.078500 0.306230
v -0.306230 -0.078500 0.458306
v -0.210935 -0.078500 0.509242
v -0.210935 0.078500 0.509242
v 0.000000 -0.078500 0.551200
v 0.000000 0.078500 0.551200
v 0.107534 -0.078500 0.540609
v 0.306231 0.078500 0.458306
v 0.509243 0.078500 0.210935
v 0.540609 0.078500 0.107533
v 0.509242 -0.078500 -0.210936
v 0.509242 0.078500 -0.210936
v 0.389757 -0.078500 -0.389758
v 0.389757 0.078500 -0.389758
v 0.306230 0.078500 -0.458306
v 0.107533 -0.078500 -0.540609
vt 0.771875 0.364854
vt 0.771875 0.316049
vt 0.809498 0.316190
vt 0.807774 0.364972
vt 0.826796 0.658608
vt 0.811630 0.620901
vt 0.849694 0.627732
vt 0.850452 0.653196
vt 0.184249 0.349017
vt 0.187729 0.397769
vt 0.130502 0.411727
vt 0.129413 0.349017
vt 0.840720 0.268144
vt 0.808501 0.287520
vt 0.829661 0.255305
vt 0.815182 0.574101
vt 0.781085 0.617878
vt 0.781085 0.574068
vt 0.051776 0.397615
vt 0.053896 0.349017
vt 0.342740 0.297391
vt 0.275387 0.315186
vt 0.273227 0.284384
vt 0.323245 0.265104
vt 0.341867 0.352138
vt 0.280401 0.352138
vt 0.067516 0.484972
vt 0.025093 0.447984
vt 0.052092 0.423410
vt 0.101660 0.452669
vt 0.012927 0.416340
vt 0.143044 0.491057
vt 0.166539 0.474774
vt 0.214157 0.522853
vt 0.175499 0.553506
vt 0.231645 0.587040
vt 0.218875 0.591397
vt 0.436793 0.282527
vt 0.399143 0.247829
vt 0.440145 0.200710
vt 0.466084 0.234782
vt 0.368658 0.217645
vt 0.418880 0.177459
vt 0.110232 0.514433
vt 0.119967 0.568843
vt 0.167517 0.598805
vt 0.124307 0.600933
vt 0.443706 0.151671
vt 0.467138 0.176162
vt 0.495910 0.211092
vt 0.254207 0.604844
vt 0.221911 0.624225
vt 0.263297 0.535719
vt 0.802592 0.525715
vt 0.781085 0.528765
vt 0.821860 0.512624
vt 0.845259 0.542049
vt 0.771875 0.428178
vt 0.807709 0.428197
vt 0.869690 0.632295
vt 0.879626 0.650909
vt 0.820829 0.418434
vt 0.873697 0.381260
vt 0.856966 0.428005
vt 0.865703 0.583236
vt 0.865829 0.317295
vt 0.904266 0.635494
vt 0.891891 0.611618
vt 0.941262 0.592710
vt 0.943486 0.621924
vt 0.901976 0.319106
vt 0.915278 0.363602
vt 0.920309 0.433993
vt 0.944768 0.417309
vt 0.952294 0.440490
vt 0.937775 0.445498
vt 0.904955 0.461825
vt 0.927317 0.560856
vt 0.937770 0.476427
vt 0.979933 0.452068
vt 0.967706 0.602298
vt 0.975818 0.569727
vt 0.981069 0.572607
vt 0.962601 0.623811
vt 0.977788 0.563837
vt 1.001239 0.559430
vt 0.989009 0.605723
vt 0.945165 0.533717
vt 0.971924 0.781451
vt 0.943203 0.841321
vt 0.885761 0.826459
vt 0.937249 0.764818
vt 0.771875 0.287977
vt 0.806189 0.636719
vt 0.781085 0.632705
vt 0.863776 0.952054
vt 0.776853 0.962941
vt 0.776853 0.895245
vt 0.839884 0.891394
vt 0.821513 0.819611
vt 0.769685 0.819611
vt 0.773438 0.740117
vt 0.804910 0.736833
vt 0.872284 0.801358
vt 0.840507 0.715846
vt 0.312020 0.646460
vt 0.492680 0.769389
vt 0.492680 0.888653
vt 0.312020 0.970052
vt 0.847429 0.846149
vt 0.776853 0.855066
vt 0.391841 0.314699
vt 0.196589 0.451318
vt 0.297688 0.222618
vt 0.333501 0.176208
vt 0.972006 0.904019
vt 0.775828 0.689478
vt 0.983561 0.410299
vt 0.905175 0.534040
vt 0.924341 0.513900
vt 0.986913 0.625509
vt 0.865649 0.550431
vt 0.955908 0.343774
vt 0.927178 0.294936
vt 0.879430 0.276778
vt 0.858503 0.383792
vt 0.842237 0.440897
vt 0.244028 0.472705
vt 0.282913 0.489049
vt 0.385171 0.148314
vt 0.410056 0.121006
vt 0.229877 0.294332
vt 0.243370 0.258784
vt 0.815837 0.659885
vt 0.385099 0.352138
vt 0.706766 0.017345
vt 0.706766 0.069701
vt 0.742626 0.069701
vt 0.742626 0.017345
vt 0.777108 0.069701
vt 0.777108 0.017345
vt 0.808886 0.069701
vt 0.808886 0.017345
vt 0.836740 0.069701
vt 0.836740 0.017345
vt 0.808886 0.069701
vt 0.808886 0.017345
vt 0.777108 0.069701
vt 0.777108 0.017345
vt 0.742626 0.069701
vt 0.742626 0.017345
vt 0.706766 0.069701
vt 0.706766 0.017345
vt 0.670906 0.069701
vt 0.670906 0.017345
vt 0.636425 0.069701
vt 0.636425 0.017345
vt 0.604646 0.069701
vt 0.604646 0.017345
vt 0.576792 0.069701
vt 0.576792 0.017345
vt 0.836741 0.016688
vt 0.836741 0.069044
vt 0.808886 0.069044
vt 0.808886 0.016688
vt 0.777108 0.069044
vt 0.777108 0.016688
vt 0.742626 0.069044
vt 0.742626 0.016688
vt 0.706766 0.069044
vt 0.706766 0.016688
vt 0.670906 0.069044
vt 0.670906 0.016688
vt 0.636425 0.069044
vt 0.636425 0.016688
vt 0.604646 0.069044
vt 0.604646 0.016688
vt 0.576792 0.069044
vt 0.576792 0.016688
vt 0.604646 0.069044
vt 0.604646 0.016688
vt 0.636425 0.069044
vt 0.636425 0.016688
vt 0.670906 0.069044
vt 0.670906 0.016688
vt 0.706766 0.069044
vt 0.706766 0.016688
vt 0.742626 0.069044
vt 0.742626 0.016688
vt 0.777108 0.069044
vt 0.777108 0.016688
vt 0.930723 0.162756
vt 0.917387 0.164069
vt 0.917387 0.027356
vt 0.930723 0.028669
vt 0.943546 0.032559
vt 0.955364 0.038876
vt 0.965723 0.047377
vt 0.974224 0.057735
vt 0.980541 0.069553
vt 0.984431 0.082377
vt 0.985744 0.095712
vt 0.984431 0.109048
vt 0.980541 0.121871
vt 0.974224 0.133689
vt 0.965723 0.144048
vt 0.955364 0.152549
vt 0.943546 0.158866
vt 0.636425 0.017345
vt 0.636425 0.069701
vt 0.670907 0.069701
vt 0.670906 0.017345
vt 0.918550 0.166394
vt 0.931886 0.165081
vt 0.944709 0.161191
vt 0.956527 0.154874
vt 0.966886 0.146373
vt 0.975387 0.136015
vt 0.981703 0.124197
vt 0.985593 0.111373
vt 0.986907 0.098038
vt 0.985593 0.084702
vt 0.981703 0.071879
vt 0.975387 0.060061
vt 0.966886 0.049702
vt 0.956527 0.041201
vt 0.944709 0.034884
vt 0.931886 0.030994
vt 0.918550 0.029681
vt 0.735976 0.364972
vt 0.734253 0.316190
vt 0.735373 0.658608
vt 0.711717 0.653196
vt 0.712475 0.627732
vt 0.750540 0.620901
vt 0.130502 0.286308
vt 0.187729 0.300265
vt 0.703030 0.268144
vt 0.714089 0.255305
vt 0.735249 0.287520
vt 0.746988 0.574101
vt 0.051776 0.300419
vt 0.342740 0.406885
vt 0.323245 0.439172
vt 0.273227 0.419892
vt 0.275387 0.389090
vt 0.067516 0.213062
vt 0.101660 0.245365
vt 0.052092 0.274625
vt 0.025093 0.250050
vt 0.012927 0.281694
vt 0.143044 0.206977
vt 0.175499 0.144528
vt 0.214157 0.175182
vt 0.166539 0.223260
vt 0.218875 0.106638
vt 0.231645 0.110994
vt 0.436793 0.421749
vt 0.466084 0.469494
vt 0.440145 0.503567
vt 0.399143 0.456447
vt 0.418879 0.526817
vt 0.368658 0.486632
vt 0.110232 0.183601
vt 0.119967 0.129192
vt 0.124307 0.097101
vt 0.167517 0.099229
vt 0.467138 0.528114
vt 0.443706 0.552605
vt 0.495910 0.493184
vt 0.221911 0.073809
vt 0.254207 0.093190
vt 0.263297 0.162316
vt 0.759577 0.525715
vt 0.740310 0.512624
vt 0.716910 0.542049
vt 0.736041 0.428197
vt 0.682544 0.650909
vt 0.692479 0.632295
vt 0.722921 0.418434
vt 0.686784 0.428006
vt 0.670053 0.381260
vt 0.696466 0.583236
vt 0.677921 0.317295
vt 0.657904 0.635494
vt 0.670278 0.611618
vt 0.618683 0.621924
vt 0.620908 0.592710
vt 0.628472 0.363602
vt 0.641774 0.319106
vt 0.623441 0.433993
vt 0.605975 0.445498
vt 0.591456 0.440490
vt 0.598982 0.417310
vt 0.638795 0.461825
vt 0.634853 0.560856
vt 0.605980 0.476427
vt 0.563817 0.452068
vt 0.594464 0.602298
vt 0.581101 0.572607
vt 0.586351 0.569727
vt 0.599568 0.623811
vt 0.560931 0.559430
vt 0.584382 0.563837
vt 0.573160 0.605723
vt 0.617004 0.533717
vt 0.581782 0.781451
vt 0.616457 0.764818
vt 0.667945 0.826459
vt 0.610502 0.841321
vt 0.755981 0.636719
vt 0.689930 0.952054
vt 0.713822 0.891394
vt 0.718087 0.814728
vt 0.742415 0.733883
vt 0.669261 0.791773
vt 0.708953 0.709636
vt 0.131359 0.888653
vt 0.131359 0.769389
vt 0.706277 0.846149
vt 0.391841 0.389578
vt 0.196589 0.246716
vt 0.333501 0.528068
vt 0.297688 0.481658
vt 0.581699 0.904019
vt 0.560189 0.410299
vt 0.637829 0.513900
vt 0.656994 0.534040
vt 0.575257 0.625509
vt 0.696521 0.550431
vt 0.587842 0.343774
vt 0.616572 0.294936
vt 0.664320 0.276778
vt 0.701513 0.440898
vt 0.685247 0.383792
vt 0.282913 0.208985
vt 0.244028 0.225329
vt 0.410056 0.583270
vt 0.385171 0.555962
vt 0.243370 0.445492
vt 0.229877 0.409944
vt 0.746332 0.659885
vt 0.604646 0.017345
vt 0.604646 0.069701
vt 0.576792 0.017345
vt 0.576792 0.069701
vt 0.836741 0.016688
vt 0.808886 0.016688
vt 0.808886 0.069044
vt 0.836741 0.069044
vt 0.904052 0.162756
vt 0.891228 0.158866
vt 0.879410 0.152549
vt 0.869052 0.144048
vt 0.860551 0.133689
vt 0.854234 0.121871
vt 0.850344 0.109048
vt 0.849031 0.095712
vt 0.850344 0.082377
vt 0.854234 0.069553
vt 0.860551 0.057735
vt 0.869052 0.047377
vt 0.879410 0.038876
vt 0.891228 0.032559
vt 0.904052 0.028669
vt 0.905214 0.030994
vt 0.892391 0.034884
vt 0.880573 0.041201
vt 0.870214 0.049702
vt 0.861713 0.060061
vt 0.855397 0.071879
vt 0.851507 0.084702
vt 0.850193 0.098038
vt 0.851507 0.111374
vt 0.855397 0.124197
vt 0.861713 0.136015
vt 0.870214 0.146373
vt 0.880573 0.154874
vt 0.892391 0.161191
vt 0.905214 0.165081
vn 0.0000 -0.1784 -0.9839
vn 0.0000 0.4621 -0.8868
vn 0.2692 0.4879 -0.8303
vn 0.3565 -0.2965 -0.8860
vn 0.6270 0.7787 -0.0204
vn 0.2532 0.4281 0.8675
vn 0.0935 0.7397 0.6663
vn 0.0000 1.0000 0.0000
vn 0.0000 -1.0000 0.0000
vn -0.7071 -0.7071 0.0000
vn -0.3688 -0.2110 0.9052
vn 0.0000 -0.7071 0.7071
vn 0.7190 0.3512 -0.5997
vn 0.9969 0.0739 -0.0244
vn 0.3278 -0.2773 0.9031
vn 0.0000 0.3427 0.9394
vn 0.0000 -0.1083 0.9941
vn 0.3250 0.1818 0.9281
vn -0.2399 -0.3945 -0.8870
vn 0.3519 0.1327 -0.9266
vn 0.5019 0.5903 -0.6321
vn 0.5921 -0.1255 -0.7960
vn 0.0000 -0.7071 -0.7071
vn 0.9997 -0.0075 -0.0228
vn 0.7517 0.6594 0.0000
vn 0.5019 0.5903 0.6321
vn 0.6527 0.1225 0.7476
vn 0.6598 0.7514 0.0059
vn 0.5676 0.0000 0.8233
vn -0.6431 0.0000 0.7657
vn -0.9390 0.2017 0.2786
vn 0.8946 0.1708 0.4128
vn -0.5773 0.5773 0.5773
vn 0.5773 0.5773 0.5773
vn -1.0000 0.0000 0.0000
vn -0.7845 0.0000 -0.6200
vn -0.6732 0.1169 -0.7302
vn 0.6896 0.0000 -0.7241
vn 0.5921 0.1255 -0.7960
vn 0.9989 0.0000 0.0457
vn 0.9997 0.0075 -0.0228
vn 0.9935 0.0000 0.1140
vn 1.0000 0.0000 0.0000
vn 0.6218 0.0000 -0.7831
vn -0.7071 0.0000 -0.7071
vn -0.7071 0.0000 0.7071
vn 0.7071 0.0000 0.7071
vn 0.6573 -0.7536 -0.0059
vn -0.1746 -0.3998 -0.8998
vn -0.2217 -0.3603 0.9061
vn 0.1455 0.7613 -0.6319
vn 0.6218 0.0000 0.7831
vn 0.8581 0.2911 0.4230
vn 0.5019 -0.5903 -0.6321
vn -0.5773 -0.5773 -0.5773
vn -0.9045 0.3015 0.3015
vn 0.7517 -0.6594 0.0000
vn 0.6750 -0.7337 0.0775
vn 0.5773 -0.5773 0.5773
vn -0.5773 -0.5773 0.5773
vn 0.0000 -0.1450 0.9894
vn 0.8722 -0.0313 0.4881
vn 0.6920 -0.2345 0.6826
vn 0.0000 -0.5991 0.8006
vn 0.0000 0.5035 -0.8639
vn 0.8477 0.5268 -0.0624
vn 0.0000 0.9957 -0.0923
vn 0.0000 0.9407 0.3392
vn 0.7099 0.6352 0.3041
vn 0.0000 0.5063 -0.8623
vn 0.5166 0.5466 -0.6590
vn 0.6743 0.2842 0.6815
vn 0.0000 0.5867 0.8098
vn 0.0000 -0.6857 -0.7279
vn 0.0000 0.6857 -0.7279
vn 0.1420 0.6857 -0.7139
vn 0.1420 -0.6857 -0.7139
vn 0.2785 0.6857 -0.6725
vn 0.2785 -0.6857 -0.6725
vn 0.4044 0.6857 -0.6052
vn 0.4044 -0.6857 -0.6052
vn 0.5147 0.6857 -0.5147
vn 0.5147 -0.6857 -0.5147
vn 0.6052 0.6857 -0.4044
vn 0.6052 -0.6857 -0.4044
vn 0.6725 0.6857 -0.2785
vn 0.6725 -0.6857 -0.2785
vn 0.7139 0.6857 -0.1420
vn 0.7139 -0.6857 -0.1420
vn 0.7279 0.6857 0.0000
vn 0.7279 -0.6857 0.0000
vn 0.7139 0.6857 0.1420
vn 0.7139 -0.6857 0.1420
vn 0.6725 0.6857 0.2785
vn 0.6725 -0.6857 0.2785
vn 0.6052 0.6857 0.4044
vn 0.6052 -0.6857 0.4044
vn 0.5147 0.6857 0.5147
vn 0.5147 -0.6857 0.5147
vn 0.4044 0.6857 0.6052
vn 0.4044 -0.6857 0.6052
vn 0.2785 0.6857 0.6725
vn 0.2785 -0.6857 0.6725
vn 0.1420 0.6857 0.7139
vn 0.1420 -0.6857 0.7139
vn 0.0000 0.6857 0.7279
vn 0.0000 -0.6857 0.7279
vn -0.1420 0.6857 0.7139
vn -0.1420 -0.6857 0.7139
vn -0.2785 0.6857 0.6725
vn -0.2785 -0.6857 0.6725
vn -0.4044 0.6857 0.6052
vn -0.4044 -0.6857 0.6052
vn -0.5147 0.6857 0.5147
vn -0.5147 -0.6857 0.5147
vn -0.6052 0.6857 0.4044
vn -0.6052 -0.6857 0.4044
vn -0.6725 0.6857 0.2785
vn -0.6725 -0.6857 0.2785
vn -0.7139 0.6857 0.1420
vn -0.7139 -0.6857 0.1420
vn -0.7279 0.6857 0.0000
vn -0.7279 -0.6857 0.0000
vn -0.7139 0.6857 -0.1420
vn -0.7139 -0.6857 -0.1420
vn -0.6725 0.6857 -0.2785
vn -0.6725 -0.6857 -0.2785
vn -0.2785 -0.6857 -0.6725
vn -0.2785 0.6857 -0.6725
vn -0.1420 0.6857 -0.7139
vn -0.1420 -0.6857 -0.7139
vn -0.3565 -0.2965 -0.8860
vn -0.2692 0.4879 -0.8303
vn -0.6270 0.7787 -0.0204
vn -0.0935 0.7397 0.6663
vn -0.2532 0.4281 0.8675
vn 0.3688 -0.2110 0.9052
vn 0.7071 -0.7071 0.0000
vn -0.9969 0.0739 -0.0244
vn -0.7190 0.3512 -0.5997
vn -0.3278 -0.2773 0.9031
vn -0.3250 0.1818 0.9281
vn 0.2399 -0.3945 -0.8870
vn -0.5921 -0.1255 -0.7960
vn -0.5019 0.5903 -0.6321
vn -0.3519 0.1327 -0.9266
vn -0.9997 -0.0075 -0.0228
vn -0.6527 0.1225 0.7476
vn -0.5019 0.5903 0.6321
vn -0.7517 0.6594 0.0000
vn -0.6598 0.7514 0.0059
vn -0.5676 0.0000 0.8233
vn -0.8946 0.1708 0.4128
vn 0.9390 0.2017 0.2786
vn 0.6431 0.0000 0.7657
vn 0.6732 0.1169 -0.7302
vn 0.7845 0.0000 -0.6200
vn -0.5921 0.1255 -0.7960
vn -0.6896 0.0000 -0.7241
vn -0.9989 0.0000 0.0457
vn -0.9997 0.0075 -0.0228
vn -0.9935 0.0000 0.1140
vn 0.7071 0.0000 -0.7071
vn -0.6218 0.0000 -0.7831
vn -0.6573 -0.7536 -0.0059
vn 0.1746 -0.3998 -0.8998
vn 0.2217 -0.3603 0.9061
vn -0.1455 0.7613 -0.6319
vn -0.6218 0.0000 0.7831
vn -0.8581 0.2911 0.4230
vn 0.5773 -0.5773 -0.5773
vn -0.5019 -0.5903 -0.6321
vn 0.9045 0.3015 0.3015
vn -0.7517 -0.6594 0.0000
vn -0.6750 -0.7337 0.0775
vn -0.6920 -0.2345 0.6826
vn -0.8722 -0.0313 0.4881
vn -0.8477 0.5268 -0.0624
vn -0.7099 0.6352 0.3041
vn -0.5166 0.5466 -0.6590
vn -0.6743 0.2842 0.6815
vn -0.4044 -0.6857 -0.6052
vn -0.4044 0.6857 -0.6052
vn -0.5147 -0.6857 -0.5147
vn -0.5147 0.6857 -0.5147
vn -0.6052 -0.6857 -0.4044
vn -0.6052 0.6857 -0.4044
s 1
f 139/1/1 113/2/2 4/3/3 23/4/4
f 56/5/5 2/6/6 26/7/7 65/8/8
f 178/9/9 55/10/10 1/11/11 114/12/12
f 56/13/5 4/3/3 45/14/13 73/15/14
f 24/16/15 2/6/6 115/17/16 138/18/17
f 1/11/11 6/19/18 118/20/17 114/12/12
f 3/21/19 5/22/20 7/23/21 8/24/22
f 112/25/23 119/26/1 5/22/20 3/21/19
f 58/27/24 59/28/25 10/29/26 9/30/27
f 57/31/28 6/19/18 10/29/26 59/28/25
f 6/19/18 1/11/11 9/30/27 10/29/26
f 52/32/29 51/33/30 11/34/31 13/35/32
f 13/35/32 11/34/31 19/36/33 20/37/34
f 76/38/35 53/39/36 12/40/37 60/41/35
f 53/39/36 54/42/38 14/43/39 12/40/37
f 75/44/40 52/32/29 13/35/32 61/45/41
f 61/45/41 13/35/32 17/46/42 63/47/43
f 12/40/37 14/43/39 18/48/44 16/49/45
f 60/41/35 12/40/37 16/49/45 62/50/35
f 20/37/34 19/36/33 21/51/46 22/52/47
f 11/34/31 15/53/35 21/51/46 19/36/33
f 17/46/42 13/35/32 20/37/34 22/52/47
f 6/54/18 24/16/15 138/18/17 118/55/17
f 57/56/28 64/57/48 24/16/15 6/54/18
f 119/58/1 139/1/1 23/4/4 5/59/20
f 65/8/8 26/7/7 30/60/26 67/61/25
f 64/62/48 23/4/4 27/63/49 66/64/10
f 2/6/6 24/16/15 28/65/50 26/7/7
f 23/4/4 4/3/3 25/66/51 27/63/49
f 68/67/43 67/61/25 30/60/26 32/68/52
f 68/67/43 32/68/52 36/69/53 70/70/43
f 27/63/49 25/66/51 29/71/21 31/72/44
f 26/7/7 28/65/50 32/68/52 30/60/26
f 33/73/45 35/74/44 39/75/54 37/76/55
f 66/64/10 27/63/49 33/73/45 69/77/35
f 27/63/49 31/72/44 35/74/44 33/73/45
f 32/68/52 28/65/50 34/78/56 36/69/53
f 71/79/10 37/76/55 39/75/54 72/80/57
f 69/77/35 33/73/45 37/76/55 71/79/10
f 40/81/58 36/69/53 41/82/34 43/83/59
f 70/70/43 36/69/53 40/81/58 72/84/57
f 41/82/34 42/85/33 44/86/60 43/83/59
f 38/87/10 40/81/58 43/83/59 44/86/60
f 36/69/53 34/78/56 42/85/33 41/82/34
f 34/78/56 38/88/10 44/86/60 42/85/33
f 163/89/61 46/90/62 49/91/63 169/92/64
f 4/3/3 113/2/2 160/93/65 45/14/13
f 115/17/16 2/6/6 46/94/62 163/95/61
f 74/96/66 197/97/67 167/98/68 48/99/69
f 45/100/13 160/101/65 164/102/70 47/103/71
f 73/104/14 45/100/13 47/103/71 74/105/66
f 169/106/64 49/107/63 50/108/72 171/109/73
f 46/90/62 48/99/69 50/110/72 49/91/63
f 48/99/69 167/98/68 171/111/73 50/110/72
f 58/27/24 9/30/27 52/32/29 75/44/40
f 3/21/19 8/24/22 54/42/38 53/39/36
f 55/112/10 3/21/19 53/39/36 76/38/35
f 9/30/27 1/11/11 51/33/30 52/32/29
f 1/11/11 55/10/10 76/113/35 51/33/30
f 8/24/22 58/114/24 75/115/40 54/42/38
f 46/90/62 73/116/14 74/96/66 48/99/69
f 47/103/71 197/117/67 74/105/66
f 35/74/44 70/118/43 72/80/57 39/75/54
f 34/78/56 69/119/35 71/120/10 38/88/10
f 38/87/10 71/121/10 72/84/57 40/81/58
f 28/65/50 66/122/10 69/119/35 34/78/56
f 31/72/44 68/123/43 70/118/43 35/74/44
f 31/72/44 29/71/21 67/124/25 68/123/43
f 24/16/15 64/57/48 66/122/10 28/65/50
f 25/66/51 65/125/8 67/124/25 29/71/21
f 5/59/20 23/4/4 64/126/48 57/127/28
f 11/34/31 60/128/35 62/129/35 15/53/35
f 14/43/39 61/130/41 63/131/43 18/48/44
f 54/42/38 75/115/40 61/130/41 14/43/39
f 51/33/30 76/113/35 60/128/35 11/34/31
f 5/22/20 57/132/28 59/133/25 7/23/21
f 8/24/22 7/23/21 59/133/25 58/114/24
f 2/6/6 56/5/5 73/134/14 46/94/62
f 112/25/23 3/21/19 55/112/10 178/135/9
f 4/3/3 56/13/5 65/125/8 25/66/51
f 197/117/67 47/103/71 164/102/70
f 200/136/74 201/137/75 77/138/76 232/139/77
f 232/139/77 77/138/76 79/140/78 78/141/79
f 78/141/79 79/140/78 231/142/80 80/143/81
f 80/143/81 231/142/80 230/144/82 229/145/83
f 229/145/83 230/144/82 82/146/84 81/147/85
f 81/147/85 82/146/84 228/148/86 227/149/87
f 227/149/87 228/148/86 84/150/88 83/151/89
f 83/151/89 84/150/88 86/152/90 85/153/91
f 85/153/91 86/152/90 226/154/92 87/155/93
f 87/155/93 226/154/92 225/156/94 88/157/95
f 88/157/95 225/156/94 90/158/96 89/159/97
f 89/159/97 90/158/96 92/160/98 91/161/99
f 91/162/99 92/163/98 224/164/100 93/165/101
f 93/165/101 224/164/100 95/166/102 94/167/103
f 94/167/103 95/166/102 96/168/104 223/169/105
f 223/169/105 96/168/104 222/170/106 221/171/107
f 221/171/107 222/170/106 98/172/108 97/173/109
f 97/173/109 98/172/108 220/174/110 219/175/111
f 219/175/111 220/174/110 99/176/112 218/177/113
f 218/177/113 99/176/112 101/178/114 100/179/115
f 100/179/115 101/178/114 217/180/116 102/181/117
f 102/181/117 217/180/116 216/182/118 215/183/119
f 215/183/119 216/182/118 104/184/120 103/185/121
f 103/185/121 104/184/120 105/186/122 214/187/123
f 214/187/123 105/186/122 213/188/124 106/189/125
f 106/189/125 213/188/124 212/190/126 211/191/127
f 77/192/76 201/193/75 222/194/106 96/195/104 95/196/102 224/197/100 92/198/98 90/199/96 225/200/94 226/201/92 86/202/90 84/203/88 228/204/86 82/205/84 230/206/82 231/207/80 79/208/78
f 203/209/128 204/210/129 107/211/130 202/212/131
f 202/212/131 107/211/130 201/137/75 200/136/74
f 200/213/74 232/214/77 78/215/79 80/216/81 229/217/83 81/218/85 227/219/87 83/220/89 85/221/91 87/222/93 88/223/95 89/224/97 91/225/99 93/226/101 94/227/103 223/228/105 221/229/107
f 139/1/1 136/230/132 111/231/133 113/2/2
f 177/232/134 187/233/8 141/234/135 109/235/136
f 178/9/9 114/12/12 108/236/137 176/237/138
f 177/238/134 195/239/139 161/240/140 111/231/133
f 137/241/141 138/18/17 115/17/16 109/235/136
f 108/236/137 114/12/12 118/20/17 117/242/142
f 110/243/143 121/244/144 120/245/145 116/246/146
f 112/25/23 110/243/143 116/246/146 119/26/1
f 180/247/147 122/248/148 123/249/149 181/250/150
f 179/251/151 181/250/150 123/249/149 117/242/142
f 117/242/142 123/249/149 122/248/148 108/236/137
f 173/252/152 126/253/153 124/254/154 172/255/155
f 126/253/153 133/256/33 132/257/34 124/254/154
f 199/258/43 182/259/43 125/260/156 174/261/157
f 174/261/157 125/260/156 127/262/158 175/263/159
f 198/264/160 183/265/161 126/253/153 173/252/152
f 183/265/161 185/266/35 130/267/162 126/253/153
f 125/260/156 129/268/163 131/269/164 127/262/158
f 182/259/43 184/270/43 129/268/163 125/260/156
f 133/256/33 135/271/46 134/272/47 132/257/34
f 124/254/154 132/257/34 134/272/47 128/273/43
f 130/267/162 135/271/46 133/256/33 126/253/153
f 117/274/142 118/55/17 138/18/17 137/241/141
f 179/275/151 117/274/142 137/241/141 186/276/165
f 119/58/1 116/277/146 136/230/132 139/1/1
f 187/233/8 189/278/150 145/279/149 141/234/135
f 186/280/165 188/281/138 142/282/166 136/230/132
f 109/235/136 141/234/135 143/283/167 137/241/141
f 136/230/132 142/282/166 140/284/168 111/231/133
f 190/285/35 147/286/169 145/279/149 189/278/150
f 190/285/35 192/287/35 151/288/170 147/286/169
f 142/282/166 146/289/164 144/290/145 140/284/168
f 141/234/135 145/279/149 147/286/169 143/283/167
f 148/291/163 152/292/171 154/293/172 150/294/164
f 188/281/138 191/295/43 148/291/163 142/282/166
f 142/282/166 148/291/163 150/294/164 146/289/164
f 147/286/169 151/288/170 149/296/173 143/283/167
f 193/297/138 194/298/174 154/293/172 152/292/171
f 191/295/43 193/297/138 152/292/171 148/291/163
f 155/299/175 158/300/60 156/301/33 151/288/170
f 192/287/35 194/302/174 155/299/175 151/288/170
f 156/301/33 158/300/60 159/303/59 157/304/34
f 153/305/138 159/303/59 158/300/60 155/299/175
f 151/288/170 156/301/33 157/304/34 149/296/173
f 149/296/173 157/304/34 159/303/59 153/306/138
f 163/307/61 169/308/64 168/309/176 162/310/177
f 111/231/133 161/240/140 160/93/65 113/2/2
f 115/17/16 163/95/61 162/311/177 109/235/136
f 196/312/178 166/313/179 167/98/68 197/97/67
f 161/314/140 165/315/180 164/102/70 160/101/65
f 195/316/139 196/317/178 165/315/180 161/314/140
f 169/106/64 171/109/73 170/318/181 168/319/176
f 162/310/177 168/309/176 170/320/181 166/313/179
f 166/313/179 170/320/181 171/111/73 167/98/68
f 180/247/147 198/264/160 173/252/152 122/248/148
f 110/243/143 174/261/157 175/263/159 121/244/144
f 176/321/138 199/258/43 174/261/157 110/243/143
f 122/248/148 173/252/152 172/255/155 108/236/137
f 108/236/137 172/255/155 199/322/43 176/237/138
f 121/244/144 175/263/159 198/323/160 180/324/147
f 162/310/177 166/313/179 196/312/178 195/325/139
f 165/315/180 196/317/178 197/117/67
f 150/294/164 154/293/172 194/298/174 192/326/35
f 149/296/173 153/306/138 193/327/138 191/328/43
f 153/305/138 155/299/175 194/302/174 193/329/138
f 143/283/167 149/296/173 191/328/43 188/330/138
f 146/289/164 150/294/164 192/326/35 190/331/35
f 146/289/164 190/331/35 189/332/150 144/290/145
f 137/241/141 143/283/167 188/330/138 186/276/165
f 140/284/168 144/290/145 189/332/150 187/333/8
f 116/277/146 179/334/151 186/335/165 136/230/132
f 124/254/154 128/273/43 184/336/43 182/337/43
f 127/262/158 131/269/164 185/338/35 183/339/161
f 175/263/159 127/262/158 183/339/161 198/323/160
f 172/255/155 124/254/154 182/337/43 199/322/43
f 116/246/146 120/245/145 181/340/150 179/341/151
f 121/244/144 180/324/147 181/340/150 120/245/145
f 109/235/136 162/311/177 195/342/139 177/232/134
f 112/25/23 178/135/9 176/321/138 110/243/143
f 111/231/133 140/284/168 187/333/8 177/238/134
f 197/117/67 164/102/70 165/315/180
f 203/209/128 205/343/182 206/344/183 204/210/129
f 205/343/182 207/345/184 208/346/185 206/344/183
f 207/347/184 209/348/186 210/349/187 208/350/185
f 209/348/186 211/191/127 212/190/126 210/349/187
f 222/194/106 201/193/75 107/351/130 204/352/129 206/353/183 208/354/185 210/355/187 212/356/126 213/357/124 105/358/122 104/359/120 216/360/118 217/361/116 101/362/114 99/363/112 220/364/110 98/365/108
f 221/229/107 97/366/109 219/367/111 218/368/113 100/369/115 102/370/117 215/371/119 103/372/121 214/373/123 106/374/125 211/375/127 209/376/186 207/377/184 205/378/182 203/379/128 202/380/131 200/213/74
